<svg version="1.2" preserveAspectRatio="none" viewBox="0 0 64 64" class="ng-element" data-id="04fb775a8c314426927a38f0198cb9d6" style="opacity: 1; mix-blend-mode: normal; overflow: visible; width: 26px; height: 26px; transform: rotate(0deg) translate(996px, 1040px) rotate(0deg);"><g>
	<path d="M22.012,54.574c-0.256,0-0.512-0.098-0.707-0.293L0.327,33.304c-0.391-0.391-0.391-1.023,0-1.414s1.023-0.391,1.414,0
		l20.978,20.978c0.391,0.391,0.391,1.023,0,1.414C22.523,54.477,22.268,54.574,22.012,54.574z" vector-effect="non-scaling-stroke" style="fill: rgb(41, 122, 197);"></path>
</g><g>
	<path d="M22.027,54.574c-0.256,0-0.512-0.098-0.707-0.293c-0.391-0.391-0.391-1.023,0-1.414l41-41c0.391-0.391,1.023-0.391,1.414,0
		s0.391,1.023,0,1.414l-41,41C22.539,54.477,22.283,54.574,22.027,54.574z" vector-effect="non-scaling-stroke" style="fill: rgb(41, 122, 197);"></path>
</g></svg>