<svg version="1.2" preserveAspectRatio="none" viewBox="0 0 64 64" class="ng-element" data-id="19ba9f3da7f84c8a8fec17bc788ecf67" style="opacity: 1; mix-blend-mode: normal; overflow: visible; width: 26px; height: 26px; transform: rotate(0deg) translate(999px, 1311px) rotate(0deg);"><title>targeting</title><g id="outlined_1527001180979"><path d="M32,6A26,26,0,1,0,58,32,26,26,0,0,0,32,6Zm1,50V49a1,1,0,0,0-2,0v7A24,24,0,0,1,8,33h7a1,1,0,0,0,0-2H8A24,24,0,0,1,31,8v7a1,1,0,0,0,2,0V8A24,24,0,0,1,56,31H49a1,1,0,0,0,0,2h7A24,24,0,0,1,33,56Z" vector-effect="non-scaling-stroke" style="fill: rgb(41, 122, 197);"></path></g></svg>