<svg version="1.2" preserveAspectRatio="none" viewBox="0 0 64 64" class="ng-element" data-id="db45617fecf44f968082d658dd09b894" style="opacity: 1; mix-blend-mode: normal; overflow: visible; width: 26px; height: 26px; transform: rotate(0deg) translate(518px, 1409px) rotate(0deg);"><g>
	<path d="M31.781,46h0.438C37.599,46,42,41.599,42,36.219V9.781C42,4.401,37.599,0,32.219,0h-0.438C26.401,0,22,4.401,22,9.781
		v26.438C22,41.599,26.401,46,31.781,46z M24,9.781C24,5.491,27.491,2,31.781,2h0.438C36.509,2,40,5.491,40,9.781v26.438
		C40,40.509,36.509,44,32.219,44h-0.438C27.491,44,24,40.509,24,36.219V9.781z" vector-effect="non-scaling-stroke" style="fill: rgb(41, 122, 197);"></path>
	<path d="M48.997,21.953c-0.553,0-1,0.448-1,1v13.051c0,8.82-7.176,15.997-15.997,15.997s-15.997-7.176-15.997-15.997V22.938
		c0-0.552-0.447-1-1-1s-1,0.448-1,1v13.067c0,9.586,7.539,17.422,16.997,17.946V62h-4c-0.553,0-1,0.448-1,1s0.447,1,1,1h10
		c0.553,0,1-0.448,1-1s-0.447-1-1-1h-4v-8.05c9.458-0.524,16.997-8.36,16.997-17.946V22.953
		C49.997,22.401,49.55,21.953,48.997,21.953z" vector-effect="non-scaling-stroke" style="fill: rgb(41, 122, 197);"></path>
</g></svg>